{"accessors" : [{"bufferView" : 0, "byteOffset" : 0, "componentType" : 5123, "count" : 5088, "type" : "SCALAR", "max" : [1644], "min" : [0]}, {"bufferView" : 1, "byteOffset" : 0, "componentType" : 5126, "count" : 1645, "type" : "VEC3", "max" : [51.8270378112793, 37.219139099121094, 41.85805892944336], "min" : [-41.791988372802734, -24.719139099121094, -49.854496002197266], "name" : "POSITION"}, {"bufferView" : 1, "byteOffset" : 12, "componentType" : 5126, "count" : 1645, "type" : "VEC2", "max" : [10.876483917236328, 8.954480171203613], "min" : [-10.876483917236328, -8.76617431640625], "name" : "TEXCOORD_0"}, {"bufferView" : 1, "byteOffset" : 20, "componentType" : 5126, "count" : 1645, "type" : "VEC3", "max" : [1.0000044107437134, 1.0000044107437134, 1.0000044107437134], "min" : [-1.0000044107437134, -1.0000044107437134, -1.0000044107437134], "name" : "NORMAL"}, {"bufferView" : 0, "byteOffset" : 10176, "componentType" : 5123, "count" : 9378, "type" : "SCALAR", "max" : [2135], "min" : [0]}, {"bufferView" : 2, "byteOffset" : 0, "componentType" : 5126, "count" : 2136, "type" : "VEC3", "max" : [54.86204147338867, 48.555267333984375, 44.5974235534668], "min" : [25, -48.555267333984375, 10], "name" : "POSITION"}, {"bufferView" : 2, "byteOffset" : 12, "componentType" : 5126, "count" : 2136, "type" : "VEC2", "max" : [9.651192665100098, 10.282645225524902], "min" : [-9.651192665100098, -6.96851110458374], "name" : "TEXCOORD_0"}, {"bufferView" : 2, "byteOffset" : 20, "componentType" : 5126, "count" : 2136, "type" : "VEC3", "max" : [1.0000044107437134, 0.9537027478218079, 0.9999319314956665], "min" : [-1.0000044107437134, -0.9537027478218079, -1.0000044107437134], "name" : "NORMAL"}, {"bufferView" : 0, "byteOffset" : 28932, "componentType" : 5123, "count" : 6654, "type" : "SCALAR", "max" : [1472], "min" : [0]}, {"bufferView" : 3, "byteOffset" : 0, "componentType" : 5126, "count" : 1473, "type" : "VEC3", "max" : [55.268489837646484, 22.719139099121094, 10.827866554260254], "min" : [0.17095300555229187, -22.744718551635742, -26.40008544921875], "name" : "POSITION"}, {"bufferView" : 3, "byteOffset" : 12, "componentType" : 5126, "count" : 1473, "type" : "VEC2", "max" : [4.974279880523682, 4], "min" : [-5.728756904602051, -6.0203962326049805], "name" : "TEXCOORD_0"}, {"bufferView" : 3, "byteOffset" : 20, "componentType" : 5126, "count" : 1473, "type" : "VEC3", "max" : [1.0000044107437134, 1.0000044107437134, 1.0000044107437134], "min" : [-1.0000044107437134, -1.0000044107437134, -1.0000044107437134], "name" : "NORMAL"}, {"bufferView" : 0, "byteOffset" : 42240, "componentType" : 5123, "count" : 20646, "type" : "SCALAR", "max" : [4401], "min" : [0]}, {"bufferView" : 4, "byteOffset" : 0, "componentType" : 5126, "count" : 4402, "type" : "VEC3", "max" : [56.92612838745117, -0, 49.992462158203125], "min" : [-49.95783996582031, -55, -56], "name" : "POSITION"}, {"bufferView" : 4, "byteOffset" : 12, "componentType" : 5126, "count" : 4402, "type" : "VEC2", "max" : [13.825927734375, 15.035374641418457], "min" : [-15.124068260192871, -8.870882034301758], "name" : "TEXCOORD_0"}, {"bufferView" : 4, "byteOffset" : 20, "componentType" : 5126, "count" : 4402, "type" : "VEC3", "max" : [1.0000044107437134, 1.0000044107437134, 1.0000044107437134], "min" : [-1.0000044107437134, -1.0000044107437134, -1.0000044107437134], "name" : "NORMAL"}, {"bufferView" : 0, "byteOffset" : 83532, "componentType" : 5123, "count" : 20118, "type" : "SCALAR", "max" : [4262], "min" : [0]}, {"bufferView" : 5, "byteOffset" : 0, "componentType" : 5126, "count" : 4263, "type" : "VEC3", "max" : [56.92612838745117, 55, 49.992462158203125], "min" : [-49.95783996582031, 0, -56], "name" : "POSITION"}, {"bufferView" : 5, "byteOffset" : 12, "componentType" : 5126, "count" : 4263, "type" : "VEC2", "max" : [13.825927734375, 14.856000900268555], "min" : [-13.525901794433594, -7.7688493728637695], "name" : "TEXCOORD_0"}, {"bufferView" : 5, "byteOffset" : 20, "componentType" : 5126, "count" : 4263, "type" : "VEC3", "max" : [1.0000044107437134, 1.0000044107437134, 1.0000044107437134], "min" : [-1.0000044107437134, -1.0000044107437134, -1.0000044107437134], "name" : "NORMAL"}], "asset" : {"generator" : "Aspose.3D 24.9.1", "version" : "2.0"}, "buffers" : [{"uri" : "data:application/octet-stream;base64,", "byteLength" : 569200}], "bufferViews" : [{"buffer" : 0, "byteOffset" : 0, "byteLength" : 123768, "target" : 34963}, {"buffer" : 0, "byteOffset" : 123772, "byteLength" : 52640, "byteStride" : 32, "target" : 34962}, {"buffer" : 0, "byteOffset" : 176416, "byteLength" : 68352, "byteStride" : 32, "target" : 34962}, {"buffer" : 0, "byteOffset" : 244772, "byteLength" : 47136, "byteStride" : 32, "target" : 34962}, {"buffer" : 0, "byteOffset" : 291912, "byteLength" : 140864, "byteStride" : 32, "target" : 34962}, {"buffer" : 0, "byteOffset" : 432780, "byteLength" : 136416, "byteStride" : 32, "target" : 34962}], "meshes" : [{"primitives" : [{"attributes" : {"POSITION" : 1, "TEXCOORD_0" : 2, "NORMAL" : 3}, "indices" : 0, "mode" : 4}], "name" : ""}, {"primitives" : [{"attributes" : {"POSITION" : 5, "TEXCOORD_0" : 6, "NORMAL" : 7}, "indices" : 4, "mode" : 4}], "name" : ""}, {"primitives" : [{"attributes" : {"POSITION" : 9, "TEXCOORD_0" : 10, "NORMAL" : 11}, "indices" : 8, "mode" : 4}], "name" : ""}, {"primitives" : [{"attributes" : {"POSITION" : 13, "TEXCOORD_0" : 14, "NORMAL" : 15}, "indices" : 12, "mode" : 4}], "name" : ""}, {"primitives" : [{"attributes" : {"POSITION" : 17, "TEXCOORD_0" : 18, "NORMAL" : 19}, "indices" : 16, "mode" : 4}], "name" : ""}], "nodes" : [{"mesh" : 0, "name" : "cheeks, back of throat, battery holder, pump holder"}, {"mesh" : 1, "name" : "lid (1) (1) (1)"}, {"mesh" : 2, "name" : "Body1"}, {"mesh" : 3, "name" : "Casing"}, {"mesh" : 4, "name" : "Casing (1)"}], "scene" : 0, "scenes" : [{"nodes" : [0, 1, 2, 3, 4]}]}