{"accessors" : [{"bufferView" : 0, "byteOffset" : 0, "componentType" : 5123, "count" : 4980, "type" : "SCALAR", "max" : [981], "min" : [0]}, {"bufferView" : 1, "byteOffset" : 0, "componentType" : 5126, "count" : 982, "type" : "VEC3", "max" : [59.955970764160156, 59.82394790649414, 30], "min" : [-59.955970764160156, -60, -30], "name" : "POSITION"}, {"bufferView" : 1, "byteOffset" : 12, "componentType" : 5126, "count" : 982, "type" : "VEC2", "max" : [9.42477798461914, 20.539173126220703], "min" : [-9.42477798461914, -18.079429626464844], "name" : "TEXCOORD_0"}, {"bufferView" : 1, "byteOffset" : 20, "componentType" : 5126, "count" : 982, "type" : "VEC3", "max" : [1.0000044107437134, 0.9980311989784241, 1.0000044107437134], "min" : [-1.0000044107437134, -0.9980311989784241, -1.0000044107437134], "name" : "NORMAL"}], "asset" : {"generator" : "Aspose.3D 24.9.1", "version" : "2.0"}, "buffers" : [{"uri" : "data:application/octet-stream;base64,", "byteLength" : 41392}], "bufferViews" : [{"buffer" : 0, "byteOffset" : 0, "byteLength" : 9960, "target" : 34963}, {"buffer" : 0, "byteOffset" : 9964, "byteLength" : 31424, "byteStride" : 32, "target" : 34962}], "meshes" : [{"primitives" : [{"attributes" : {"POSITION" : 1, "TEXCOORD_0" : 2, "NORMAL" : 3}, "indices" : 0, "mode" : 4}], "name" : ""}], "nodes" : [{"mesh" : 0, "name" : "Body1"}], "scene" : 0, "scenes" : [{"nodes" : [0]}]}