{"accessors" : [{"bufferView" : 0, "byteOffset" : 0, "componentType" : 5123, "count" : 3960, "type" : "SCALAR", "max" : [3745], "min" : [0]}, {"bufferView" : 1, "byteOffset" : 0, "componentType" : 5126, "count" : 3746, "type" : "VEC3", "max" : [414.6203308105469, 275.42535400390625, -154.06500244140625], "min" : [-63.94559097290039, -170.7292938232422, -370.6490783691406], "name" : "POSITION"}, {"bufferView" : 1, "byteOffset" : 12, "componentType" : 5126, "count" : 3746, "type" : "VEC3", "max" : [1.0000044107437134, 1.0000044107437134, 0.999148964881897], "min" : [-1.0000044107437134, -1.0000044107437134, -1.0000044107437134], "name" : "NORMAL"}], "asset" : {"generator" : "Aspose.3D 24.9.1", "version" : "2.0"}, "buffers" : [{"uri" : "data:application/octet-stream;base64,", "byteLength" : 97832}], "bufferViews" : [{"buffer" : 0, "byteOffset" : 0, "byteLength" : 7920, "target" : 34963}, {"buffer" : 0, "byteOffset" : 7924, "byteLength" : 89904, "byteStride" : 24, "target" : 34962}], "meshes" : [{"primitives" : [{"attributes" : {"POSITION" : 1, "NORMAL" : 2}, "indices" : 0, "mode" : 4}], "name" : ""}], "nodes" : [{"mesh" : 0, "name" : ""}], "scene" : 0, "scenes" : [{"nodes" : [0]}]}